<?xml version="1.0" encoding="UTF-8" standalone="no"?>
<!-- Created with Inkscape (http://www.inkscape.org/) -->

<svg
   width="38"
   height="38"
   viewBox="0 0 38 38"
   version="1.1"
   id="svg1"
   xml:space="preserve"
   xmlns="http://www.w3.org/2000/svg"
   xmlns:svg="http://www.w3.org/2000/svg"><defs
     id="defs1" /><g
     id="layer1"><g
       id="g6"
       transform="matrix(2.125,0,0,2.125,2,2)"
       style="stroke-width:0.470588">
	
	<g
   id="g2"
   style="stroke-width:0.470588">
		
		
	</g>
	<g
   id="g3"
   style="stroke-width:0.470588">
		
	</g>
	<g
   id="g5"
   style="stroke-width:0.470588;fill:#000000;fill-opacity:1">
		
		<path
   id="path5"
   style="fill:#ffffff;fill-opacity:1;stroke-width:0.470588"
   d="M 11.5,0.81709559 V 2.53125 c 0.105339,0.067672 0.208642,0.1388766 0.309743,0.2123162 0.0069,0.00504 0.01423,0.00964 0.02114,0.014706 0.01244,0.0092 0.02439,0.019201 0.03676,0.028493 0.05936,0.044125 0.116843,0.089964 0.174632,0.1360294 0.0015,0.00123 0.0031,0.00244 0.0046,0.00368 0.384186,0.310758 0.731522,0.6653272 1.039522,1.0523897 l 0.0046,-0.0046 c 0.265235,0.3338912 0.497626,0.6940208 0.693933,1.0762868 l -0.0046,0.0046 c 0.3405,0.66375 0.574862,1.3900046 0.670956,2.1599264 0.0131,0.1079185 0.02447,0.2168066 0.03217,0.3262868 0.0011,0.015032 0.0018,0.029975 0.0028,0.045037 C 14.494872,7.7230347 14.49998,7.8611992 14.5,8 v 9.191e-4 c -1.9e-5,0.1324369 -0.0038,0.263978 -0.01195,0.3943015 -1.67e-4,0.00276 -7.48e-4,0.00551 -9.19e-4,0.00827 -0.05814,0.9112754 -0.31076,1.7684234 -0.706801,2.5404414 l 0.0074,0.0074 c -0.196253,0.382009 -0.429757,0.741682 -0.694853,1.075367 l -0.0064,-0.0064 c -0.385749,0.484769 -0.833883,0.918174 -1.338235,1.278492 -0.01574,0.01116 -0.03103,0.02298 -0.04687,0.03401 -0.06615,0.04633 -0.133214,0.09137 -0.201287,0.13511 v 1.714154 c 0.119494,-0.05849 0.236849,-0.120596 0.352941,-0.184742 0.01597,-0.0088 0.0319,-0.01771 0.04779,-0.02665 C 14.342224,13.599763 15.999318,10.993899 16,8.0009191 V 8 7.9990809 c 0,-0.1883227 -0.007,-0.3749071 -0.02022,-0.5597427 -0.002,-0.028649 -0.0051,-0.056913 -0.0074,-0.085478 -0.0126,-0.1521694 -0.02931,-0.3035953 -0.05055,-0.453125 -0.0089,-0.0639 -0.01997,-0.1268503 -0.03033,-0.1902574 -0.01324,-0.079074 -0.0276,-0.1579577 -0.0432,-0.2362132 C 15.517653,4.7763259 14.648654,3.2714545 13.424632,2.140625 13.341043,2.0634001 13.255938,1.9881904 13.169118,1.9145221 c -0.04137,-0.035294 -0.08292,-0.070316 -0.125,-0.1047795 -0.07867,-0.064068 -0.157872,-0.1273047 -0.238971,-0.1884191 -0.09733,-0.073763 -0.197068,-0.1448267 -0.297794,-0.2141544 -0.02728,-0.018681 -0.05428,-0.037714 -0.0818,-0.056066 -3.5e-4,-2.34e-4 -5.68e-4,-6.851e-4 -9.19e-4,-9.191e-4 -0.132105,-0.088497 -0.266865,-0.173064 -0.404411,-0.2536764 -0.02169,-0.012673 -0.04344,-0.025209 -0.06526,-0.037684 C 11.806213,0.97354235 11.654667,0.89277394 11.5,0.81709559 Z m -3.2591912,0.001838 c -0.594,0 -1.1536985,0.30363968 -1.4806985,0.83363968 L 4.8134191,4.8115809 H 1.75 c -0.966,0 -1.75,0.784 -1.75,1.75 v 0.375 0.617647 1.507353 c 0,0.9660001 0.784,1.7500001 1.75,1.7500001 h 2.8327206 l 2.1773897,3.534007 c 0.327,0.53 0.8866985,0.834559 1.4806985,0.834559 0.1038677,0 0.2096597,-0.01308 0.3152574,-0.03217 0.0089,-0.0016 0.017755,-0.0019 0.026654,-0.0037 0.018056,-0.0036 0.035502,-0.0088 0.053309,-0.01287 0.030366,-0.0069 0.060727,-0.01071 0.090993,-0.0193 0.1046893,-0.02971 0.2050523,-0.06955 0.2996323,-0.115808 0.00248,-0.0012 0.00488,-0.0025 0.00735,-0.0037 0.037606,-0.01864 0.074456,-0.03867 0.1102941,-0.05974 0.018721,-0.01091 0.036929,-0.02247 0.055147,-0.03401 0.023085,-0.01474 0.045756,-0.03022 0.068015,-0.04596 0.0178,-0.01249 0.035135,-0.0255 0.05239,-0.0386 0.019504,-0.01492 0.039111,-0.02935 0.057904,-0.04504 0.021822,-0.01809 0.042586,-0.03698 0.063419,-0.05607 0.011655,-0.01074 0.023587,-0.02113 0.034926,-0.03217 0.029363,-0.02844 0.057378,-0.05783 0.084559,-0.08823 8.592e-4,-9.64e-4 0.0019,-0.0018 0.00276,-0.0028 0.091345,-0.10264 0.1699834,-0.216169 0.234375,-0.338236 0.00268,-0.0051 0.00472,-0.01052 0.00735,-0.01563 0.016368,-0.0318 0.032464,-0.06359 0.046875,-0.09651 0.00701,-0.01595 0.01276,-0.03252 0.019301,-0.04871 0.012822,-0.03189 0.025801,-0.0637 0.036765,-0.09651 0.00363,-0.01079 0.00577,-0.0222 0.00919,-0.03309 0.00971,-0.03106 0.019562,-0.06195 0.027574,-0.09375 0.00547,-0.02151 0.00912,-0.04345 0.013787,-0.06526 0.00589,-0.02775 0.012876,-0.05541 0.017463,-0.08364 0.0073,-0.04461 0.013544,-0.0904 0.017463,-0.136029 5.16e-5,-6.04e-4 -5.1e-5,-0.0012 0,-0.0018 C 9.9978583,13.530305 10,13.479955 10,13.428309 v -0.0028 -10.8529407 -0.00184 c 0,-0.051972 -0.00209,-0.1035228 -0.00643,-0.1544118 -0.00391,-0.045819 -0.010196,-0.091305 -0.017463,-0.1360294 -3.523e-4,-0.00215 -5.59e-4,-0.00428 -9.191e-4,-0.00643 -0.00433,-0.02608 -0.011096,-0.051537 -0.016544,-0.077206 -0.00467,-0.021808 -0.00832,-0.04375 -0.013787,-0.065257 -0.010832,-0.042992 -0.022849,-0.085203 -0.036765,-0.1268382 -9.285e-4,-0.00276 -0.00182,-0.00552 -0.00276,-0.00827 -0.010189,-0.029982 -0.022262,-0.059023 -0.034007,-0.088235 -0.00654,-0.016192 -0.01229,-0.032762 -0.019301,-0.048713 -0.016733,-0.038218 -0.034863,-0.075422 -0.054228,-0.1121324 -0.00104,-0.00196 -0.00263,-0.00356 -0.00368,-0.00551 C 9.7296907,1.6207257 9.6516529,1.5080233 9.5606618,1.40625 c -0.00115,-0.00129 -0.00252,-0.00239 -0.00368,-0.00368 -0.026117,-0.029034 -0.052766,-0.057321 -0.080882,-0.084559 -0.01134,-0.011041 -0.023272,-0.02143 -0.034926,-0.032169 -0.020833,-0.019086 -0.041597,-0.037977 -0.063419,-0.056066 -0.021742,-0.018146 -0.044405,-0.035269 -0.067096,-0.05239 -0.011712,-0.00877 -0.022966,-0.018165 -0.034927,-0.026654 -0.028866,-0.020656 -0.058888,-0.039855 -0.089154,-0.058823 -0.013652,-0.00848 -0.027431,-0.016688 -0.04136,-0.024816 -0.038546,-0.0227 -0.077975,-0.044449 -0.1185662,-0.064338 l -9.191e-4,-9.192e-4 c -0.09458,-0.0462601 -0.1940239,-0.085175 -0.2987132,-0.11488967 -0.162,-0.046 -0.3262133,-0.0680147 -0.4862133,-0.0680147 z M 11.5,4.2123162 v 4.453125 3.1213238 c 1.006119,-0.862119 1.668198,-2.1124017 1.742647,-3.5220591 1.64e-4,-0.00304 -1.59e-4,-0.00615 0,-0.00919 C 13.246954,8.1710329 13.249969,8.0855741 13.25,8 v -9.191e-4 c 0,-0.094684 -0.0029,-0.1888942 -0.0083,-0.2821691 -1.91e-4,-0.00341 -7.21e-4,-0.0067 -9.19e-4,-0.01011 -0.0047,-0.078148 -0.01097,-0.1554555 -0.0193,-0.2325368 -0.0045,-0.043158 -0.01,-0.085861 -0.01563,-0.1286765 -0.0058,-0.042744 -0.01152,-0.085374 -0.01838,-0.1277573 C 12.997822,6.020743 12.381341,4.9675158 11.5,4.2123162 Z" />
	<path
   style="fill:#1993ff;fill-opacity:0.95574987;stroke:none;stroke-width:0.35572;stroke-linejoin:bevel;stroke-dasharray:2.13432, 2.13432;stroke-opacity:1"
   id="path12"
   d="M 5.0043258,3.1292058 0.97783954,1.7609746 -2.7705617,3.7694907 -1.4023305,-0.25699561 -3.4108466,-4.0053969 0.61563973,-2.6371657 4.364041,-4.6456817 2.9958098,-0.61919541 Z"
   transform="translate(5.7516773,6.1738188)" /></g>
	
</g></g><style
     type="text/css"
     id="style1">
	.st0{fill:none;stroke:#000000;stroke-width:1.5;stroke-miterlimit:10;}
	.st1{fill:none;}
	.st2{fill:none;stroke:#FFFFFF;stroke-width:1.5;stroke-miterlimit:10;}
	.st3{fill:none;stroke:#000000;stroke-width:1.5;stroke-linejoin:round;stroke-miterlimit:10;}
	.st4{fill:none;stroke:#000000;stroke-width:1.5;stroke-linecap:square;stroke-linejoin:round;stroke-miterlimit:10;}
	.st5{fill:none;stroke:#000000;stroke-width:1.5;stroke-linejoin:bevel;stroke-miterlimit:10;}
	.st6{fill:none;stroke:#000000;stroke-width:1.5;stroke-linecap:round;stroke-miterlimit:10;}
	.st7{fill:none;stroke:#FFFFFF;stroke-width:1.5;stroke-linecap:square;stroke-linejoin:round;stroke-miterlimit:10;}
	.st8{fill:none;stroke:#FFFFFF;stroke-width:1.25;stroke-miterlimit:10;}
	.st9{fill:none;stroke:#FF4F5E;stroke-width:1.5;stroke-miterlimit:10;}
	.st10{fill:#FFFFFF;}
	.st11{fill:#0A0A16;}
	.st12{fill:none;stroke:#FFFFFF;stroke-width:1.5;stroke-linejoin:round;stroke-miterlimit:10;}
	.st13{fill:none;stroke:#000000;stroke-width:1.5;stroke-linecap:square;stroke-miterlimit:10;}
	.st14{fill:none;stroke:#000000;stroke-width:1.25;stroke-miterlimit:10;}
	.st15{fill:none;stroke:#000000;stroke-width:1.25;stroke-linejoin:round;stroke-miterlimit:10;}
</style></svg>
